<svg version="1.2" xmlns="http://www.w3.org/2000/svg" viewBox="0 0 24 24" width="24" height="24">
	<title>erase-svg</title>
	<style>
		.s0 { fill: #000000 } 
	</style>
	<g id="Text-Formating-Eraser-1--Streamline-Freehand.svg">
		<path id="Layer" fill-rule="evenodd" class="s0" d="m21.6 9.1c-0.4-0.6-1-1.1-1.5-1.6q-0.5-0.7-1-1.3-0.5-0.6-1.1-1.3-0.6-0.6-1.2-1.2-0.5-0.6-1.1-1.2-0.2-0.1-0.5-0.3-0.2-0.2-0.4-0.3-0.2-0.2-0.5-0.3-0.2-0.1-0.5-0.3-0.1 0-0.3-0.1-0.1 0-0.3 0-0.2 0-0.3 0-0.2 0.1-0.3 0.1c-1 0.5-3.5 3-5.8 5.7-2.1 2.5-4 5.3-4.3 6.8-0.3 1.2 0.4 2.4 1.5 3.5q0.5 0.5 1.1 0.9 0.5 0.4 1.1 0.8 0.5 0.4 1.1 0.7 0.6 0.4 1.2 0.7 0.2 0 0.4 0.1 0.2 0 0.4 0 0.2 0 0.5 0 0.2-0.1 0.4-0.1 0.4-0.1 0.8-0.3 0.4-0.1 0.8-0.2 0.4-0.2 0.8-0.3 0.5-0.2 0.9-0.3 0.2-0.2 0.4-0.4 0.2-0.2 0.4-0.4 0.2-0.2 0.4-0.4 0.2-0.2 0.4-0.4 0.1 0 0.1 0 0-0.1 0-0.1 0.1 0 0.1-0.1 0 0 0-0.1 0 0 0-0.1 0 0 0-0.1 0 0 0-0.1 0 0-0.1-0.1 0 0-0.1 0-0.1-0.1-0.1-0.1-0.1 0-0.2 0.1 0 0-0.1 0-0.1 0.2-0.3 0.4-0.2 0.2-0.4 0.4-0.2 0.2-0.4 0.4-0.2 0.2-0.4 0.3c-0.6 0.2-1.7 0.7-2.7 0.9q-0.2 0.1-0.4 0.1-0.2 0.1-0.4 0.1-0.2 0-0.4 0-0.2 0-0.5-0.1-0.5-0.3-1.1-0.6-0.5-0.4-1-0.7-0.5-0.4-1-0.8-0.5-0.4-0.9-0.9c-0.8-0.8-1.5-1.7-1.2-2.6 0.3-1.4 2.1-3.9 4.1-6.2l0.5-0.5q0.3 0.3 0.6 0.7 0.3 0.3 0.6 0.6 0.3 0.4 0.6 0.7 0.4 0.3 0.7 0.6c0.6 0.6 1.2 1 1.8 1.5 1.2 1 2.3 1.7 2.8 2.2q0 0 0.1 0 0.1 0.1 0.1 0.1 0.1 0 0.2-0.1 0.1 0 0.1 0 0-0.1 0.1-0.2 0 0 0-0.1 0-0.1 0-0.1-0.1-0.1-0.1-0.1c-0.5-0.5-1.4-1.5-2.5-2.4q-0.5-0.5-1.1-1-0.5-0.5-1.1-1c-1.2-0.9-2.2-1.6-2.5-1.9q0.5-0.6 1-1.2 0.5-0.5 1.1-1.1 0.6-0.5 1.2-1 0.6-0.5 1.2-1c0.1-0.1 0.3 0 0.6 0.1q0.2 0.2 0.5 0.3 0.2 0.2 0.5 0.4 0.2 0.2 0.5 0.4 0.2 0.2 0.4 0.4c1.4 1.4 3 3.1 3.8 4.1 0.4 0.4 0.9 0.8 1.3 1.3q0.1 0.1 0.1 0.1 0.1 0.1 0.2 0.2 0 0.1 0.1 0.2 0 0.1 0 0.2l-0.2 0.4c-1 1.1-3.4 3.6-4.5 4.7l-0.5 0.5q0 0 0 0 0 0 0 0.1 0 0 0 0 0 0 0 0-0.1 0.1-0.1 0.1 0 0.1 0 0.2 0 0 0.1 0.1 0 0 0.1 0.1c0.1 0 0.1 0.1 0.9-0.7 1.1-1.1 3.6-3.5 4.6-4.6q0.1-0.1 0.1-0.2 0.1-0.1 0.2-0.2 0.1-0.1 0.1-0.2 0.1-0.1 0.1-0.2 0-0.2 0-0.3-0.1-0.2-0.1-0.3-0.1-0.1-0.1-0.3-0.1-0.1-0.2-0.2z"/>
		<path id="Layer" fill-rule="evenodd" class="s0" d="m21.2 21.6c-1.7 0-4.3 0-7.1 0h-4.8c-3.1 0.1-6 0.2-8 0.3q-0.2 0-0.3 0.1-0.1 0.1-0.1 0.2 0 0.2 0.1 0.3 0.1 0.1 0.3 0.1c1.7 0 4.2 0.1 7 0.2h3c1 0 2 0 3-0.1 2.7-0.1 5.2-0.3 7-0.4q0.1 0 0.1 0 0.1 0 0.1-0.1 0.1 0 0.1-0.1 0-0.1 0-0.1 0-0.1 0-0.2-0.1 0-0.1-0.1-0.1 0-0.1-0.1-0.1 0-0.2 0z"/>
	</g>
</svg>